  0
SECTION
  2
HEADER
  9
$ACADVER
  1
AC1015
  9
$ACADMAINTVER
 70
6
  9
$DWGCODEPAGE
  3
ANSI_1252
  9
$INSBASE
 10
0.0
 20
0.0
 30
0.0
  9
$EXTMIN
 10
-100
 20
-100
 30
-100
  9
$EXTMAX
 10
100
 20
100
 30
100
  9
$LIMMIN
 10
0.0
 20
0.0
  9
$LIMMAX
 10
420.0
 20
297.0
  9
$ORTHOMODE
 70
0
  9
$REGENMODE
 70
1
  9
$FILLMODE
 70
1
  9
$QTEXTMODE
 70
0
  9
$MIRRTEXT
 70
1
  9
$LTSCALE
 40
1.0
  9
$ATTMODE
 70
1
  9
$TEXTSIZE
 40
2.5
  9
$TRACEWID
 40
1.0
  9
$TEXTSTYLE
  7
Standard
  9
$CLAYER
  8
0
  9
$CELTYPE
  6
ByLayer
  9
$CECOLOR
 62
256
  9
$CELTSCALE
 40
1.0
  9
$DISPSILH
 70
0
  9
$DIMSCALE
 40
1.0
  9
$DIMASZ
 40
2.5
  9
$DIMEXO
 40
0.625
  9
$DIMDLI
 40
3.75
  9
$DIMRND
 40
0.0
  9
$DIMDLE
 40
0.0
  9
$DIMEXE
 40
1.25
  9
$DIMTP
 40
0.0
  9
$DIMTM
 40
0.0
  9
$DIMTXT
 40
2.5
  9
$DIMCEN
 40
2.5
  9
$DIMTSZ
 40
0.0
  9
$DIMTOL
 70
0
  9
$DIMLIM
 70
0
  9
$DIMTIH
 70
0
  9
$DIMTOH
 70
0
  9
$DIMSE1
 70
0
  9
$DIMSE2
 70
0
  9
$DIMTAD
 70
1
  9
$DIMZIN
 70
8
  9
$DIMBLK
  1

  9
$DIMASO
 70
1
  9
$DIMSHO
 70
1
  9
$DIMPOST
  1

  9
$DIMAPOST
  1

  9
$DIMALT
 70
0
  9
$DIMALTD
 70
3
  9
$DIMALTF
 40
0.03937007874
  9
$DIMLFAC
 40
1.0
  9
$DIMTOFL
 70
1
  9
$DIMTVP
 40
0.0
  9
$DIMTIX
 70
0
  9
$DIMSOXD
 70
0
  9
$DIMSAH
 70
0
  9
$DIMBLK1
  1

  9
$DIMBLK2
  1

  9
$DIMSTYLE
  2
ISO-25
  9
$DIMCLRD
 70
0
  9
$DIMCLRE
 70
0
  9
$DIMCLRT
 70
0
  9
$DIMTFAC
 40
1.0
  9
$DIMGAP
 40
0.625
  9
$DIMJUST
 70
0
  9
$DIMSD1
 70
0
  9
$DIMSD2
 70
0
  9
$DIMTOLJ
 70
0
  9
$DIMTZIN
 70
8
  9
$DIMALTZ
 70
0
  9
$DIMALTTZ
 70
0
  9
$DIMUPT
 70
0
  9
$DIMDEC
 70
2
  9
$DIMTDEC
 70
2
  9
$DIMALTU
 70
2
  9
$DIMALTTD
 70
3
  9
$DIMTXSTY
  7
Standard
  9
$DIMAUNIT
 70
0
  9
$DIMADEC
 70
0
  9
$DIMALTRND
 40
0.0
  9
$DIMAZIN
 70
0
  9
$DIMDSEP
 70
44
  9
$DIMATFIT
 70
3
  9
$DIMFRAC
 70
0
  9
$DIMLDRBLK
  1

  9
$DIMLUNIT
 70
2
  9
$DIMLWD
 70
-2
  9
$DIMLWE
 70
-2
  9
$DIMTMOVE
 70
0
  9
$LUNITS
 70
2
  9
$LUPREC
 70
4
  9
$SKETCHINC
 40
1.0
  9
$FILLETRAD
 40
10.0
  9
$AUNITS
 70
0
  9
$AUPREC
 70
2
  9
$MENU
  1
.
  9
$ELEVATION
 40
0.0
  9
$PELEVATION
 40
0.0
  9
$THICKNESS
 40
0.0
  9
$LIMCHECK
 70
0
  9
$CHAMFERA
 40
0.0
  9
$CHAMFERB
 40
0.0
  9
$CHAMFERC
 40
0.0
  9
$CHAMFERD
 40
0.0
  9
$SKPOLY
 70
0
  9
$TDCREATE
 40
2459443.5969560184
  9
$TDUCREATE
 40
2458532.153996898
  9
$TDUPDATE
 40
2459443.5969560184
  9
$TDUUPDATE
 40
2458532.1544311
  9
$TDINDWG
 40
0.0
  9
$TDUSRTIMER
 40
0.0
  9
$USRTIMER
 70
1
  9
$ANGBASE
 50
0.0
  9
$ANGDIR
 70
0
  9
$PDMODE
 70
0
  9
$PDSIZE
 40
0.0
  9
$PLINEWID
 40
0.0
  9
$SPLFRAME
 70
0
  9
$SPLINETYPE
 70
6
  9
$SPLINESEGS
 70
8
  9
$HANDSEED
  5
93
  9
$SURFTAB1
 70
6
  9
$SURFTAB2
 70
6
  9
$SURFTYPE
 70
6
  9
$SURFU
 70
6
  9
$SURFV
 70
6
  9
$UCSBASE
  2

  9
$UCSNAME
  2

  9
$UCSORG
 10
0.0
 20
0.0
 30
0.0
  9
$UCSXDIR
 10
1.0
 20
0.0
 30
0.0
  9
$UCSYDIR
 10
0.0
 20
1.0
 30
0.0
  9
$UCSORTHOREF
  2

  9
$UCSORTHOVIEW
 70
0
  9
$UCSORGTOP
 10
0.0
 20
0.0
 30
0.0
  9
$UCSORGBOTTOM
 10
0.0
 20
0.0
 30
0.0
  9
$UCSORGLEFT
 10
0.0
 20
0.0
 30
0.0
  9
$UCSORGRIGHT
 10
0.0
 20
0.0
 30
0.0
  9
$UCSORGFRONT
 10
0.0
 20
0.0
 30
0.0
  9
$UCSORGBACK
 10
0.0
 20
0.0
 30
0.0
  9
$PUCSBASE
  2

  9
$PUCSNAME
  2

  9
$PUCSORG
 10
0.0
 20
0.0
 30
0.0
  9
$PUCSXDIR
 10
1.0
 20
0.0
 30
0.0
  9
$PUCSYDIR
 10
0.0
 20
1.0
 30
0.0
  9
$PUCSORTHOREF
  2

  9
$PUCSORTHOVIEW
 70
0
  9
$PUCSORGTOP
 10
0.0
 20
0.0
 30
0.0
  9
$PUCSORGBOTTOM
 10
0.0
 20
0.0
 30
0.0
  9
$PUCSORGLEFT
 10
0.0
 20
0.0
 30
0.0
  9
$PUCSORGRIGHT
 10
0.0
 20
0.0
 30
0.0
  9
$PUCSORGFRONT
 10
0.0
 20
0.0
 30
0.0
  9
$PUCSORGBACK
 10
0.0
 20
0.0
 30
0.0
  9
$USERI1
 70
0
  9
$USERI2
 70
0
  9
$USERI3
 70
0
  9
$USERI4
 70
0
  9
$USERI5
 70
0
  9
$USERR1
 40
0.0
  9
$USERR2
 40
0.0
  9
$USERR3
 40
0.0
  9
$USERR4
 40
0.0
  9
$USERR5
 40
0.0
  9
$WORLDVIEW
 70
1
  9
$SHADEDGE
 70
3
  9
$SHADEDIF
 70
70
  9
$TILEMODE
 70
1
  9
$MAXACTVP
 70
64
  9
$PINSBASE
 10
0.0
 20
0.0
 30
0.0
  9
$PLIMCHECK
 70
0
  9
$PEXTMIN
 10
1e+20
 20
1e+20
 30
1e+20
  9
$PEXTMAX
 10
-1e+20
 20
-1e+20
 30
-1e+20
  9
$PLIMMIN
 10
0.0
 20
0.0
  9
$PLIMMAX
 10
420.0
 20
297.0
  9
$UNITMODE
 70
0
  9
$VISRETAIN
 70
1
  9
$PLINEGEN
 70
0
  9
$PSLTSCALE
 70
1
  9
$TREEDEPTH
 70
3020
  9
$CMLSTYLE
  2
Standard
  9
$CMLJUST
 70
0
  9
$CMLSCALE
 40
20.0
  9
$PROXYGRAPHICS
 70
1
  9
$MEASUREMENT
 70
1
  9
$CELWEIGHT
370
-1
  9
$ENDCAPS
280
0
  9
$JOINSTYLE
280
0
  9
$LWDISPLAY
290
0
  9
$INSUNITS
 70
6
  9
$HYPERLINKBASE
  1

  9
$STYLESHEET
  1

  9
$XEDIT
290
1
  9
$CEPSNTYPE
380
0
  9
$PSTYLEMODE
290
1
  9
$FINGERPRINTGUID
  2
3942CB82-FE8C-11EB-9EC9-54BF646503C4
  9
$VERSIONGUID
  2
39440327-FE8C-11EB-8DEA-54BF646503C4
  9
$EXTNAMES
290
1
  9
$PSVPSCALE
 40
0.0
  9
$OLESTARTUP
290
0
  0
ENDSEC
  0
SECTION
  2
CLASSES
  0
CLASS
  1
ACDBDICTIONARYWDFLT
  2
AcDbDictionaryWithDefault
  3
ObjectDBX Classes
 90
0
280
0
281
0
  0
CLASS
  1
SUN
  2
AcDbSun
  3
SCENEOE
 90
1153
280
0
281
0
  0
CLASS
  1
VISUALSTYLE
  2
AcDbVisualStyle
  3
ObjectDBX Classes
 90
4095
280
0
281
0
  0
CLASS
  1
MATERIAL
  2
AcDbMaterial
  3
ObjectDBX Classes
 90
1153
280
0
281
0
  0
CLASS
  1
SCALE
  2
AcDbScale
  3
ObjectDBX Classes
 90
1153
280
0
281
0
  0
CLASS
  1
TABLESTYLE
  2
AcDbTableStyle
  3
ObjectDBX Classes
 90
4095
280
0
281
0
  0
CLASS
  1
MLEADERSTYLE
  2
AcDbMLeaderStyle
  3
ACDB_MLEADERSTYLE_CLASS
 90
4095
280
0
281
0
  0
CLASS
  1
DICTIONARYVAR
  2
AcDbDictionaryVar
  3
ObjectDBX Classes
 90
0
280
0
281
0
  0
CLASS
  1
CELLSTYLEMAP
  2
AcDbCellStyleMap
  3
ObjectDBX Classes
 90
1152
280
0
281
0
  0
CLASS
  1
MENTALRAYRENDERSETTINGS
  2
AcDbMentalRayRenderSettings
  3
SCENEOE
 90
1024
280
0
281
0
  0
CLASS
  1
ACDBDETAILVIEWSTYLE
  2
AcDbDetailViewStyle
  3
ObjectDBX Classes
 90
1025
280
0
281
0
  0
CLASS
  1
ACDBSECTIONVIEWSTYLE
  2
AcDbSectionViewStyle
  3
ObjectDBX Classes
 90
1025
280
0
281
0
  0
CLASS
  1
RASTERVARIABLES
  2
AcDbRasterVariables
  3
ISM
 90
0
280
0
281
0
  0
CLASS
  1
ACDBPLACEHOLDER
  2
AcDbPlaceHolder
  3
ObjectDBX Classes
 90
0
280
0
281
0
  0
CLASS
  1
LAYOUT
  2
AcDbLayout
  3
ObjectDBX Classes
 90
0
280
0
281
0
  0
ENDSEC
  0
SECTION
  2
TABLES
  0
TABLE
  2
VPORT
  5
8
330
0
100
AcDbSymbolTable
 70
1
  0
VPORT
  5
23
330
8
100
AcDbSymbolTableRecord
100
AcDbViewportTableRecord
  2
*Active
 70
0
 10
0.0
 20
0.0
 11
1.0
 21
1.0
 12
70.0
 22
50.0
 13
0.0
 23
0.0
 14
0.5
 24
0.5
 15
0.5
 25
0.5
 16
0.0
 26
0.0
 36
1.0
 17
0.0
 27
0.0
 37
0.0
 40
1.0
 41
1.34
 42
50.0
 43
0.0
 44
0.0
 50
0.0
 51
0.0
 71
0
 72
1000
 73
1
 74
3
 75
0
 76
0
 77
0
 78
0
281
0
 65
0
146
0.0
  0
ENDTAB
  0
TABLE
  2
LTYPE
  5
2
330
0
100
AcDbSymbolTable
 70
3
  0
LTYPE
  5
24
330
2
100
AcDbSymbolTableRecord
100
AcDbLinetypeTableRecord
  2
ByBlock
 70
0
  3

 72
65
 73
0
 40
0.0
  0
LTYPE
  5
25
330
2
100
AcDbSymbolTableRecord
100
AcDbLinetypeTableRecord
  2
ByLayer
 70
0
  3

 72
65
 73
0
 40
0.0
  0
LTYPE
  5
26
330
2
100
AcDbSymbolTableRecord
100
AcDbLinetypeTableRecord
  2
Continuous
 70
0
  3

 72
65
 73
0
 40
0.0
  0
ENDTAB
  0
TABLE
  2
LAYER
  5
1
330
0
100
AcDbSymbolTable
 70
2
  0
LAYER
  5
27
330
1
100
AcDbSymbolTableRecord
100
AcDbLayerTableRecord
  2
0
 70
0
 62
7
  6
Continuous
370
-3
390
13
  0
LAYER
  5
28
330
1
100
AcDbSymbolTableRecord
100
AcDbLayerTableRecord
  2
Defpoints
 70
0
 62
7
  6
Continuous
290
0
370
-3
390
13
  0
ENDTAB
  0
TABLE
  2
STYLE
  5
5
330
0
100
AcDbSymbolTable
 70
1
  0
STYLE
  5
29
330
5
100
AcDbSymbolTableRecord
100
AcDbTextStyleTableRecord
  2
Standard
 70
0
 40
0.0
 41
1.0
 50
0.0
 71
0
 42
2.5
  3
txt
  4

  0
ENDTAB
  0
TABLE
  2
VIEW
  5
7
330
0
100
AcDbSymbolTable
 70
0
  0
ENDTAB
  0
TABLE
  2
UCS
  5
6
330
0
100
AcDbSymbolTable
 70
0
  0
ENDTAB
  0
TABLE
  2
APPID
  5
3
330
0
100
AcDbSymbolTable
 70
2
  0
APPID
  5
2A
330
3
100
AcDbSymbolTableRecord
100
AcDbRegAppTableRecord
  2
ACAD
 70
0
  0
APPID
  5
92
330
3
100
AcDbSymbolTableRecord
100
AcDbRegAppTableRecord
  2
HATCHBACKGROUNDCOLOR
 70
0
  0
ENDTAB
  0
TABLE
  2
DIMSTYLE
  5
4
330
0
100
AcDbSymbolTable
 70
1
100
AcDbDimStyleTable
  0
DIMSTYLE
105
2B
330
4
100
AcDbSymbolTableRecord
100
AcDbDimStyleTableRecord
  2
Standard
 70
0
  3

  4

 40
1.0
 41
2.5
 42
0.625
 43
3.75
 44
1.25
 45
0.0
 46
0.0
 47
0.0
 48
0.0
140
2.5
141
2.5
142
0.0
143
0.03937007874
144
1.0
145
0.0
146
1.0
147
0.625
148
0.0
 71
0
 72
0
 73
0
 74
0
 75
0
 76
0
 77
1
 78
8
 79
0
170
0
171
3
172
1
173
0
174
0
175
0
176
0
177
0
178
0
179
0
271
0
272
2
273
2
274
3
275
0
276
0
277
2
278
44
279
0
280
0
281
0
282
0
283
0
284
8
285
0
286
0
288
0
289
3
371
-2
372
-2
  0
ENDTAB
  0
TABLE
  2
BLOCK_RECORD
  5
9
330
0
100
AcDbSymbolTable
 70
2
  0
BLOCK_RECORD
  5
17
330
9
100
AcDbSymbolTableRecord
100
AcDbBlockTableRecord
  2
*Model_Space
340
1A
  0
BLOCK_RECORD
  5
1B
330
9
100
AcDbSymbolTableRecord
100
AcDbBlockTableRecord
  2
*Paper_Space
340
1E
  0
ENDTAB
  0
ENDSEC
  0
SECTION
  2
BLOCKS
  0
BLOCK
  5
18
330
17
100
AcDbEntity
  8
0
100
AcDbBlockBegin
  2
*Model_Space
 70
0
 10
0.0
 20
0.0
 30
0.0
  3
*Model_Space
  1

  0
ENDBLK
  5
19
330
17
100
AcDbEntity
  8
0
100
AcDbBlockEnd
  0
BLOCK
  5
1C
330
1B
100
AcDbEntity
  8
0
100
AcDbBlockBegin
  2
*Paper_Space
 70
0
 10
0.0
 20
0.0
 30
0.0
  3
*Paper_Space
  1

  0
ENDBLK
  5
1D
330
1B
100
AcDbEntity
  8
0
100
AcDbBlockEnd
  0
ENDSEC
  0
SECTION
  2
ENTITIES
  0
LINE
  5
2D
330
17
100
AcDbEntity
  8
0
100
AcDbLine
 10
100.0
 20
0.0
 30
0.0
 11
100.0
 21
0.0
 31
0.0
  0
LINE
  5
2E
330
17
100
AcDbEntity
  8
0
100
AcDbLine
 10
99.21147013144778
 20
12.533323356430426
 30
0.0
 11
96.85831611286311
 21
24.86898871648548
 31
0.0
  0
LINE
  5
2F
330
17
100
AcDbEntity
  8
0
100
AcDbLine
 10
96.85831611286311
 20
24.86898871648548
 30
0.0
 11
87.63066800438637
 21
48.17536741017153
 31
0.0
  0
LINE
  5
30
330
17
100
AcDbEntity
  8
0
100
AcDbLine
 10
92.97764858882513
 20
36.8124552684678
 30
0.0
 11
72.89686274214115
 21
68.45471059286888
 31
0.0
  0
LINE
  5
31
330
17
100
AcDbEntity
  8
0
100
AcDbLine
 10
87.63066800438637
 20
48.17536741017153
 30
0.0
 11
53.582679497899655
 21
84.43279255020151
 31
0.0
  0
LINE
  5
32
330
17
100
AcDbEntity
  8
0
100
AcDbLine
 10
80.90169943749474
 20
58.778525229247315
 30
0.0
 11
30.901699437494727
 21
95.10565162951536
 31
0.0
  0
LINE
  5
33
330
17
100
AcDbEntity
  8
0
100
AcDbLine
 10
72.89686274214115
 20
68.45471059286888
 30
0.0
 11
6.279051952931308
 21
99.80267284282715
 31
0.0
  0
LINE
  5
34
330
17
100
AcDbEntity
  8
0
100
AcDbLine
 10
63.74239897486896
 20
77.05132427757893
 30
0.0
 11
-18.738131458572504
 21
98.22872507286885
 31
0.0
  0
LINE
  5
35
330
17
100
AcDbEntity
  8
0
100
AcDbLine
 10
53.582679497899655
 20
84.43279255020151
 30
0.0
 11
-42.57792915650732
 21
90.48270524660194
 31
0.0
  0
LINE
  5
36
330
17
100
AcDbEntity
  8
0
100
AcDbLine
 10
42.577929156507246
 20
90.48270524660195
 30
0.0
 11
-63.742398974869005
 21
77.05132427757889
 31
0.0
  0
LINE
  5
37
330
17
100
AcDbEntity
  8
0
100
AcDbLine
 10
30.901699437494727
 20
95.10565162951536
 30
0.0
 11
-80.90169943749473
 21
58.77852522924732
 31
0.0
  0
LINE
  5
38
330
17
100
AcDbEntity
  8
0
100
AcDbLine
 10
18.73813145857243
 20
98.22872507286887
 30
0.0
 11
-92.97764858882512
 21
36.81245526846785
 31
0.0
  0
LINE
  5
39
330
17
100
AcDbEntity
  8
0
100
AcDbLine
 10
6.279051952931308
 20
99.80267284282715
 30
0.0
 11
-99.21147013144778
 21
12.533323356430499
 31
0.0
  0
LINE
  5
3A
330
17
100
AcDbEntity
  8
0
100
AcDbLine
 10
-6.279051952931384
 20
99.80267284282715
 30
0.0
 11
-99.2114701314478
 21
-12.533323356430298
 31
0.0
  0
LINE
  5
3B
330
17
100
AcDbEntity
  8
0
100
AcDbLine
 10
-18.738131458572504
 20
98.22872507286885
 30
0.0
 11
-92.97764858882522
 21
-36.81245526846762
 31
0.0
  0
LINE
  5
3C
330
17
100
AcDbEntity
  8
0
100
AcDbLine
 10
-30.901699437494777
 20
95.10565162951534
 30
0.0
 11
-80.90169943749486
 21
-58.77852522924716
 31
0.0
  0
LINE
  5
3D
330
17
100
AcDbEntity
  8
0
100
AcDbLine
 10
-42.57792915650732
 20
90.48270524660194
 30
0.0
 11
-63.74239897486916
 21
-77.05132427757877
 31
0.0
  0
LINE
  5
3E
330
17
100
AcDbEntity
  8
0
100
AcDbLine
 10
-53.58267949789972
 20
84.43279255020147
 30
0.0
 11
-42.57792915650754
 21
-90.48270524660182
 31
0.0
  0
LINE
  5
3F
330
17
100
AcDbEntity
  8
0
100
AcDbLine
 10
-63.742398974869005
 20
77.05132427757889
 30
0.0
 11
-18.738131458572813
 21
-98.22872507286881
 31
0.0
  0
LINE
  5
40
330
17
100
AcDbEntity
  8
0
100
AcDbLine
 10
-72.89686274214117
 20
68.45471059286885
 30
0.0
 11
6.27905195293093
 21
-99.80267284282718
 31
0.0
  0
LINE
  5
41
330
17
100
AcDbEntity
  8
0
100
AcDbLine
 10
-80.90169943749473
 20
58.77852522924732
 30
0.0
 11
30.901699437494383
 21
-95.10565162951548
 31
0.0
  0
LINE
  5
42
330
17
100
AcDbEntity
  8
0
100
AcDbLine
 10
-87.63066800438635
 20
48.17536741017156
 30
0.0
 11
53.5826794978993
 21
-84.43279255020174
 31
0.0
  0
LINE
  5
43
330
17
100
AcDbEntity
  8
0
100
AcDbLine
 10
-92.97764858882512
 20
36.81245526846785
 30
0.0
 11
72.89686274214083
 21
-68.45471059286922
 31
0.0
  0
LINE
  5
44
330
17
100
AcDbEntity
  8
0
100
AcDbLine
 10
-96.8583161128631
 20
24.868988716485525
 30
0.0
 11
87.63066800438611
 21
-48.175367410172
 31
0.0
  0
LINE
  5
45
330
17
100
AcDbEntity
  8
0
100
AcDbLine
 10
-99.21147013144778
 20
12.533323356430499
 30
0.0
 11
96.85831611286297
 21
-24.86898871648605
 31
0.0
  0
LINE
  5
46
330
17
100
AcDbEntity
  8
0
100
AcDbLine
 10
-100.0
 20
1.0106430996148606e-13
 30
0.0
 11
100.0
 21
0.0
 31
0.0
  0
LINE
  5
47
330
17
100
AcDbEntity
  8
0
100
AcDbLine
 10
-99.2114701314478
 20
-12.533323356430298
 30
0.0
 11
96.85831611286311
 21
24.86898871648548
 31
0.0
  0
LINE
  5
48
330
17
100
AcDbEntity
  8
0
100
AcDbLine
 10
-96.85831611286315
 20
-24.86898871648533
 30
0.0
 11
87.63066800438637
 21
48.17536741017153
 31
0.0
  0
LINE
  5
49
330
17
100
AcDbEntity
  8
0
100
AcDbLine
 10
-92.97764858882522
 20
-36.81245526846762
 30
0.0
 11
72.89686274214115
 21
68.45471059286888
 31
0.0
  0
LINE
  5
4A
330
17
100
AcDbEntity
  8
0
100
AcDbLine
 10
-87.63066800438644
 20
-48.17536741017138
 30
0.0
 11
53.582679497899655
 21
84.43279255020151
 31
0.0
  0
LINE
  5
4B
330
17
100
AcDbEntity
  8
0
100
AcDbLine
 10
-80.90169943749486
 20
-58.77852522924716
 30
0.0
 11
30.901699437494727
 21
95.10565162951536
 31
0.0
  0
LINE
  5
4C
330
17
100
AcDbEntity
  8
0
100
AcDbLine
 10
-72.8968627421413
 20
-68.45471059286871
 30
0.0
 11
6.279051952931308
 21
99.80267284282715
 31
0.0
  0
LINE
  5
4D
330
17
100
AcDbEntity
  8
0
100
AcDbLine
 10
-63.74239897486916
 20
-77.05132427757877
 30
0.0
 11
-18.738131458572504
 21
98.22872507286885
 31
0.0
  0
LINE
  5
4E
330
17
100
AcDbEntity
  8
0
100
AcDbLine
 10
-53.58267949789985
 20
-84.43279255020138
 30
0.0
 11
-42.57792915650732
 21
90.48270524660194
 31
0.0
  0
LINE
  5
4F
330
17
100
AcDbEntity
  8
0
100
AcDbLine
 10
-42.57792915650754
 20
-90.48270524660182
 30
0.0
 11
-63.742398974869005
 21
77.05132427757889
 31
0.0
  0
LINE
  5
50
330
17
100
AcDbEntity
  8
0
100
AcDbLine
 10
-30.90169943749501
 20
-95.10565162951528
 30
0.0
 11
-80.90169943749473
 21
58.77852522924732
 31
0.0
  0
LINE
  5
51
330
17
100
AcDbEntity
  8
0
100
AcDbLine
 10
-18.738131458572813
 20
-98.22872507286881
 30
0.0
 11
-92.97764858882512
 21
36.81245526846785
 31
0.0
  0
LINE
  5
52
330
17
100
AcDbEntity
  8
0
100
AcDbLine
 10
-6.279051952931675
 20
-99.80267284282714
 30
0.0
 11
-99.21147013144778
 21
12.533323356430499
 31
0.0
  0
LINE
  5
53
330
17
100
AcDbEntity
  8
0
100
AcDbLine
 10
6.27905195293093
 20
-99.80267284282718
 30
0.0
 11
-99.2114701314478
 21
-12.533323356430298
 31
0.0
  0
LINE
  5
54
330
17
100
AcDbEntity
  8
0
100
AcDbLine
 10
18.738131458572077
 20
-98.22872507286894
 30
0.0
 11
-92.97764858882522
 21
-36.81245526846762
 31
0.0
  0
LINE
  5
55
330
17
100
AcDbEntity
  8
0
100
AcDbLine
 10
30.901699437494383
 20
-95.10565162951548
 30
0.0
 11
-80.90169943749486
 21
-58.77852522924716
 31
0.0
  0
LINE
  5
56
330
17
100
AcDbEntity
  8
0
100
AcDbLine
 10
42.57792915650686
 20
-90.48270524660215
 30
0.0
 11
-63.74239897486916
 21
-77.05132427757877
 31
0.0
  0
LINE
  5
57
330
17
100
AcDbEntity
  8
0
100
AcDbLine
 10
53.5826794978993
 20
-84.43279255020174
 30
0.0
 11
-42.57792915650754
 21
-90.48270524660182
 31
0.0
  0
LINE
  5
58
330
17
100
AcDbEntity
  8
0
100
AcDbLine
 10
63.742398974868586
 20
-77.05132427757924
 30
0.0
 11
-18.738131458572813
 21
-98.22872507286881
 31
0.0
  0
LINE
  5
59
330
17
100
AcDbEntity
  8
0
100
AcDbLine
 10
72.89686274214083
 20
-68.45471059286922
 30
0.0
 11
6.27905195293093
 21
-99.80267284282718
 31
0.0
  0
LINE
  5
5A
330
17
100
AcDbEntity
  8
0
100
AcDbLine
 10
80.90169943749447
 20
-58.77852522924769
 30
0.0
 11
30.901699437494383
 21
-95.10565162951548
 31
0.0
  0
LINE
  5
5B
330
17
100
AcDbEntity
  8
0
100
AcDbLine
 10
87.63066800438611
 20
-48.175367410172
 30
0.0
 11
53.5826794978993
 21
-84.43279255020174
 31
0.0
  0
LINE
  5
5C
330
17
100
AcDbEntity
  8
0
100
AcDbLine
 10
92.97764858882495
 20
-36.812455268468284
 30
0.0
 11
72.89686274214083
 21
-68.45471059286922
 31
0.0
  0
LINE
  5
5D
330
17
100
AcDbEntity
  8
0
100
AcDbLine
 10
96.85831611286297
 20
-24.86898871648605
 30
0.0
 11
87.63066800438611
 21
-48.175367410172
 31
0.0
  0
LINE
  5
5E
330
17
100
AcDbEntity
  8
0
100
AcDbLine
 10
99.21147013144771
 20
-12.533323356430994
 30
0.0
 11
96.85831611286297
 21
-24.86898871648605
 31
0.0
  0
TEXT
  5
5F
330
17
100
AcDbEntity
  8
0
100
AcDbText
 10
100.0
 20
-6.462178297730347e-13
 30
0.0
 40
3.0
  1
0
  7
LiberationSerif
 11
100.0
 21
-6.462178297730347e-13
 31
0.0
100
AcDbText
 73
3
  0
TEXT
  5
60
330
17
100
AcDbEntity
  8
0
100
AcDbText
 10
99.21147013144787
 20
12.5333233564298
 30
0.0
 40
3.0
  1
1
  7
LiberationSerif
 11
99.21147013144787
 21
12.5333233564298
 31
0.0
100
AcDbText
  0
TEXT
  5
61
330
17
100
AcDbEntity
  8
0
100
AcDbText
 10
96.85831611286326
 20
24.868988716484886
 30
0.0
 40
3.0
  1
2
  7
LiberationSerif
 11
96.85831611286326
 21
24.868988716484886
 31
0.0
100
AcDbText
  0
TEXT
  5
62
330
17
100
AcDbEntity
  8
0
100
AcDbText
 10
92.97764858882539
 20
36.81245526846716
 30
0.0
 40
3.0
  1
3
  7
LiberationSerif
 11
92.97764858882539
 21
36.81245526846716
 31
0.0
100
AcDbText
  0
TEXT
  5
63
330
17
100
AcDbEntity
  8
0
100
AcDbText
 10
87.63066800438668
 20
48.17536741017094
 30
0.0
 40
3.0
  1
4
  7
LiberationSerif
 11
87.63066800438668
 21
48.17536741017094
 31
0.0
100
AcDbText
  0
TEXT
  5
64
330
17
100
AcDbEntity
  8
0
100
AcDbText
 10
80.90169943749518
 20
58.77852522924671
 30
0.0
 40
3.0
  1
5
  7
LiberationSerif
 11
80.90169943749518
 21
58.77852522924671
 31
0.0
100
AcDbText
  0
TEXT
  5
65
330
17
100
AcDbEntity
  8
0
100
AcDbText
 10
72.89686274214165
 20
68.45471059286834
 30
0.0
 40
3.0
  1
6
  7
LiberationSerif
 11
72.89686274214165
 21
68.45471059286834
 31
0.0
100
AcDbText
  0
TEXT
  5
66
330
17
100
AcDbEntity
  8
0
100
AcDbText
 10
63.74239897486951
 20
77.05132427757847
 30
0.0
 40
3.0
  1
7
  7
LiberationSerif
 11
63.74239897486951
 21
77.05132427757847
 31
0.0
100
AcDbText
  0
TEXT
  5
67
330
17
100
AcDbEntity
  8
0
100
AcDbText
 10
53.58267949790031
 20
84.4327925502011
 30
0.0
 40
3.0
  1
8
  7
LiberationSerif
 11
53.58267949790031
 21
84.4327925502011
 31
0.0
100
AcDbText
  0
TEXT
  5
68
330
17
100
AcDbEntity
  8
0
100
AcDbText
 10
42.57792915650795
 20
90.48270524660164
 30
0.0
 40
3.0
  1
9
  7
LiberationSerif
 11
42.57792915650795
 21
90.48270524660164
 31
0.0
100
AcDbText
  0
TEXT
  5
69
330
17
100
AcDbEntity
  8
0
100
AcDbText
 10
30.901699437495534
 20
95.1056516295151
 30
0.0
 40
3.0
  1
10
  7
LiberationSerif
 11
30.901699437495534
 21
95.1056516295151
 31
0.0
100
AcDbText
  0
TEXT
  5
6A
330
17
100
AcDbEntity
  8
0
100
AcDbText
 10
18.73813145857326
 20
98.22872507286871
 30
0.0
 40
3.0
  1
11
  7
LiberationSerif
 11
18.73813145857326
 21
98.22872507286871
 31
0.0
100
AcDbText
  0
TEXT
  5
6B
330
17
100
AcDbEntity
  8
0
100
AcDbText
 10
6.279051952932218
 20
99.8026728428271
 30
0.0
 40
3.0
  1
12
  7
LiberationSerif
 11
6.279051952932218
 21
99.8026728428271
 31
0.0
100
AcDbText
  0
TEXT
  5
6C
330
17
100
AcDbEntity
  8
0
100
AcDbText
 10
-6.279051952930474
 20
99.8026728428272
 30
0.0
 40
3.0
  1
13
  7
LiberationSerif
 72
2
 11
-6.279051952930474
 21
99.8026728428272
 31
0.0
100
AcDbText
  0
TEXT
  5
6D
330
17
100
AcDbEntity
  8
0
100
AcDbText
 10
-18.73813145857163
 20
98.22872507286903
 30
0.0
 40
3.0
  1
14
  7
LiberationSerif
 72
2
 11
-18.73813145857163
 21
98.22872507286903
 31
0.0
100
AcDbText
  0
TEXT
  5
6E
330
17
100
AcDbEntity
  8
0
100
AcDbText
 10
-30.901699437493868
 20
95.10565162951565
 30
0.0
 40
3.0
  1
15
  7
LiberationSerif
 72
2
 11
-30.901699437493868
 21
95.10565162951565
 31
0.0
100
AcDbText
  0
TEXT
  5
6F
330
17
100
AcDbEntity
  8
0
100
AcDbText
 10
-42.577929156506364
 20
90.48270524660238
 30
0.0
 40
3.0
  1
16
  7
LiberationSerif
 72
2
 11
-42.577929156506364
 21
90.48270524660238
 31
0.0
100
AcDbText
  0
TEXT
  5
70
330
17
100
AcDbEntity
  8
0
100
AcDbText
 10
-53.58267949789891
 20
84.43279255020198
 30
0.0
 40
3.0
  1
17
  7
LiberationSerif
 72
2
 11
-53.58267949789891
 21
84.43279255020198
 31
0.0
100
AcDbText
  0
TEXT
  5
71
330
17
100
AcDbEntity
  8
0
100
AcDbText
 10
-63.74239897486823
 20
77.05132427757954
 30
0.0
 40
3.0
  1
18
  7
LiberationSerif
 72
2
 11
-63.74239897486823
 21
77.05132427757954
 31
0.0
100
AcDbText
  0
TEXT
  5
72
330
17
100
AcDbEntity
  8
0
100
AcDbText
 10
-72.89686274214044
 20
68.45471059286962
 30
0.0
 40
3.0
  1
19
  7
LiberationSerif
 72
2
 11
-72.89686274214044
 21
68.45471059286962
 31
0.0
100
AcDbText
  0
TEXT
  5
73
330
17
100
AcDbEntity
  8
0
100
AcDbText
 10
-80.9016994374942
 20
58.77852522924806
 30
0.0
 40
3.0
  1
20
  7
LiberationSerif
 72
2
 11
-80.9016994374942
 21
58.77852522924806
 31
0.0
100
AcDbText
  0
TEXT
  5
74
330
17
100
AcDbEntity
  8
0
100
AcDbText
 10
-87.63066800438588
 20
48.1753674101724
 30
0.0
 40
3.0
  1
21
  7
LiberationSerif
 72
2
 11
-87.63066800438588
 21
48.1753674101724
 31
0.0
100
AcDbText
  0
TEXT
  5
75
330
17
100
AcDbEntity
  8
0
100
AcDbText
 10
-92.97764858882475
 20
36.81245526846879
 30
0.0
 40
3.0
  1
22
  7
LiberationSerif
 72
2
 11
-92.97764858882475
 21
36.81245526846879
 31
0.0
100
AcDbText
  0
TEXT
  5
76
330
17
100
AcDbEntity
  8
0
100
AcDbText
 10
-96.85831611286288
 20
24.86898871648641
 30
0.0
 40
3.0
  1
23
  7
LiberationSerif
 72
2
 11
-96.85831611286288
 21
24.86898871648641
 31
0.0
100
AcDbText
  0
TEXT
  5
77
330
17
100
AcDbEntity
  8
0
100
AcDbText
 10
-99.21147013144768
 20
12.533323356431273
 30
0.0
 40
3.0
  1
24
  7
LiberationSerif
 72
2
 11
-99.21147013144768
 21
12.533323356431273
 31
0.0
100
AcDbText
  0
TEXT
  5
78
330
17
100
AcDbEntity
  8
0
100
AcDbText
 10
-100.0
 20
7.472821397345207e-13
 30
0.0
 40
3.0
  1
25
  7
LiberationSerif
 72
2
 11
-100.0
 21
7.472821397345207e-13
 31
0.0
100
AcDbText
  0
TEXT
  5
79
330
17
100
AcDbEntity
  8
0
100
AcDbText
 10
-99.21147013144788
 20
-12.533323356429612
 30
0.0
 40
3.0
  1
26
  7
LiberationSerif
 72
2
 11
-99.21147013144788
 21
-12.533323356429612
 31
0.0
100
AcDbText
 73
3
  0
TEXT
  5
7A
330
17
100
AcDbEntity
  8
0
100
AcDbText
 10
-96.85831611286329
 20
-24.86898871648479
 30
0.0
 40
3.0
  1
27
  7
LiberationSerif
 72
2
 11
-96.85831611286329
 21
-24.86898871648479
 31
0.0
100
AcDbText
 73
3
  0
TEXT
  5
7B
330
17
100
AcDbEntity
  8
0
100
AcDbText
 10
-92.97764858882537
 20
-36.81245526846723
 30
0.0
 40
3.0
  1
28
  7
LiberationSerif
 72
2
 11
-92.97764858882537
 21
-36.81245526846723
 31
0.0
100
AcDbText
 73
3
  0
TEXT
  5
7C
330
17
100
AcDbEntity
  8
0
100
AcDbText
 10
-87.6306680043866
 20
-48.17536741017109
 30
0.0
 40
3.0
  1
29
  7
LiberationSerif
 72
2
 11
-87.6306680043866
 21
-48.17536741017109
 31
0.0
100
AcDbText
 73
3
  0
TEXT
  5
7D
330
17
100
AcDbEntity
  8
0
100
AcDbText
 10
-80.90169943749498
 20
-58.778525229246995
 30
0.0
 40
3.0
  1
30
  7
LiberationSerif
 72
2
 11
-80.90169943749498
 21
-58.778525229246995
 31
0.0
100
AcDbText
 73
3
  0
TEXT
  5
7E
330
17
100
AcDbEntity
  8
0
100
AcDbText
 10
-72.89686274214135
 20
-68.45471059286865
 30
0.0
 40
3.0
  1
31
  7
LiberationSerif
 72
2
 11
-72.89686274214135
 21
-68.45471059286865
 31
0.0
100
AcDbText
 73
3
  0
TEXT
  5
7F
330
17
100
AcDbEntity
  8
0
100
AcDbText
 10
-63.742398974869104
 20
-77.0513242775788
 30
0.0
 40
3.0
  1
32
  7
LiberationSerif
 72
2
 11
-63.742398974869104
 21
-77.0513242775788
 31
0.0
100
AcDbText
 73
3
  0
TEXT
  5
80
330
17
100
AcDbEntity
  8
0
100
AcDbText
 10
-53.582679497899875
 20
-84.43279255020137
 30
0.0
 40
3.0
  1
33
  7
LiberationSerif
 72
2
 11
-53.582679497899875
 21
-84.43279255020137
 31
0.0
100
AcDbText
 73
3
  0
TEXT
  5
81
330
17
100
AcDbEntity
  8
0
100
AcDbText
 10
-42.5779291565074
 20
-90.4827052466019
 30
0.0
 40
3.0
  1
34
  7
LiberationSerif
 72
2
 11
-42.5779291565074
 21
-90.4827052466019
 31
0.0
100
AcDbText
 73
3
  0
TEXT
  5
82
330
17
100
AcDbEntity
  8
0
100
AcDbText
 10
-30.901699437494784
 20
-95.10565162951534
 30
0.0
 40
3.0
  1
35
  7
LiberationSerif
 72
2
 11
-30.901699437494784
 21
-95.10565162951534
 31
0.0
100
AcDbText
 73
3
  0
TEXT
  5
83
330
17
100
AcDbEntity
  8
0
100
AcDbText
 10
-18.7381314585724
 20
-98.22872507286888
 30
0.0
 40
3.0
  1
36
  7
LiberationSerif
 72
2
 11
-18.7381314585724
 21
-98.22872507286888
 31
0.0
100
AcDbText
 73
3
  0
TEXT
  5
84
330
17
100
AcDbEntity
  8
0
100
AcDbText
 10
-6.279051952931168
 20
-99.80267284282716
 30
0.0
 40
3.0
  1
37
  7
LiberationSerif
 72
2
 11
-6.279051952931168
 21
-99.80267284282716
 31
0.0
100
AcDbText
 73
3
  0
TEXT
  5
85
330
17
100
AcDbEntity
  8
0
100
AcDbText
 10
6.279051952931614
 20
-99.80267284282714
 30
0.0
 40
3.0
  1
38
  7
LiberationSerif
 11
6.279051952931614
 21
-99.80267284282714
 31
0.0
100
AcDbText
 73
3
  0
TEXT
  5
86
330
17
100
AcDbEntity
  8
0
100
AcDbText
 10
18.73813145857284
 20
-98.2287250728688
 30
0.0
 40
3.0
  1
39
  7
LiberationSerif
 11
18.73813145857284
 21
-98.2287250728688
 31
0.0
100
AcDbText
 73
3
  0
TEXT
  5
87
330
17
100
AcDbEntity
  8
0
100
AcDbText
 10
30.90169943749504
 20
-95.10565162951526
 30
0.0
 40
3.0
  1
40
  7
LiberationSerif
 11
30.90169943749504
 21
-95.10565162951526
 31
0.0
100
AcDbText
 73
3
  0
TEXT
  5
88
330
17
100
AcDbEntity
  8
0
100
AcDbText
 10
42.57792915650764
 20
-90.48270524660178
 30
0.0
 40
3.0
  1
41
  7
LiberationSerif
 11
42.57792915650764
 21
-90.48270524660178
 31
0.0
100
AcDbText
 73
3
  0
TEXT
  5
89
330
17
100
AcDbEntity
  8
0
100
AcDbText
 10
53.5826794979001
 20
-84.43279255020123
 30
0.0
 40
3.0
  1
42
  7
LiberationSerif
 11
53.5826794979001
 21
-84.43279255020123
 31
0.0
100
AcDbText
 73
3
  0
TEXT
  5
8A
330
17
100
AcDbEntity
  8
0
100
AcDbText
 10
63.74239897486945
 20
-77.05132427757853
 30
0.0
 40
3.0
  1
43
  7
LiberationSerif
 11
63.74239897486945
 21
-77.05132427757853
 31
0.0
100
AcDbText
 73
3
  0
TEXT
  5
8B
330
17
100
AcDbEntity
  8
0
100
AcDbText
 10
72.89686274214165
 20
-68.45471059286832
 30
0.0
 40
3.0
  1
44
  7
LiberationSerif
 11
72.89686274214165
 21
-68.45471059286832
 31
0.0
100
AcDbText
 73
3
  0
TEXT
  5
8C
330
17
100
AcDbEntity
  8
0
100
AcDbText
 10
80.90169943749524
 20
-58.77852522924664
 30
0.0
 40
3.0
  1
45
  7
LiberationSerif
 11
80.90169943749524
 21
-58.77852522924664
 31
0.0
100
AcDbText
 73
3
  0
TEXT
  5
8D
330
17
100
AcDbEntity
  8
0
100
AcDbText
 10
87.63066800438672
 20
-48.17536741017085
 30
0.0
 40
3.0
  1
46
  7
LiberationSerif
 11
87.63066800438672
 21
-48.17536741017085
 31
0.0
100
AcDbText
 73
3
  0
TEXT
  5
8E
330
17
100
AcDbEntity
  8
0
100
AcDbText
 10
92.97764858882547
 20
-36.812455268466984
 30
0.0
 40
3.0
  1
47
  7
LiberationSerif
 11
92.97764858882547
 21
-36.812455268466984
 31
0.0
100
AcDbText
 73
3
  0
TEXT
  5
8F
330
17
100
AcDbEntity
  8
0
100
AcDbText
 10
96.85831611286335
 20
-24.868988716484527
 30
0.0
 40
3.0
  1
48
  7
LiberationSerif
 11
96.85831611286335
 21
-24.868988716484527
 31
0.0
100
AcDbText
 73
3
  0
TEXT
  5
90
330
17
100
AcDbEntity
  8
0
100
AcDbText
 10
99.21147013144792
 20
-12.533323356429344
 30
0.0
 40
3.0
  1
49
  7
LiberationSerif
 11
99.21147013144792
 21
-12.533323356429344
 31
0.0
100
AcDbText
 73
3
  0
CIRCLE
  5
91
330
17
100
AcDbEntity
  8
0
100
AcDbCircle
 10
0.0
 20
0.0
 30
0.0
 40
100.0
  0
ENDSEC
  0
SECTION
  2
OBJECTS
  0
DICTIONARY
  5
A
330
0
100
AcDbDictionary
281
1
  3
ACAD_COLOR
350
B
  3
ACAD_GROUP
350
C
  3
ACAD_LAYOUT
350
D
  3
ACAD_MATERIAL
350
E
  3
ACAD_MLEADERSTYLE
350
F
  3
ACAD_MLINESTYLE
350
10
  3
ACAD_PLOTSETTINGS
350
11
  3
ACAD_PLOTSTYLENAME
350
12
  3
ACAD_SCALELIST
350
14
  3
ACAD_TABLESTYLE
350
15
  3
ACAD_VISUALSTYLE
350
16
  0
DICTIONARY
  5
B
330
A
100
AcDbDictionary
281
1
  0
DICTIONARY
  5
C
330
A
100
AcDbDictionary
281
1
  0
DICTIONARY
  5
D
330
A
100
AcDbDictionary
281
1
  3
Model
350
1A
  3
Layout1
350
1E
  0
DICTIONARY
  5
E
330
A
100
AcDbDictionary
281
1
  3
ByBlock
350
1F
  3
ByLayer
350
20
  3
Global
350
21
  0
DICTIONARY
  5
F
330
A
100
AcDbDictionary
281
1
  3
Standard
350
2C
  0
DICTIONARY
  5
10
330
A
100
AcDbDictionary
281
1
  3
Standard
350
22
  0
DICTIONARY
  5
11
330
A
100
AcDbDictionary
281
1
  0
ACDBDICTIONARYWDFLT
  5
12
330
A
100
AcDbDictionary
281
1
  3
Normal
350
13
100
AcDbDictionaryWithDefault
340
13
  0
ACDBPLACEHOLDER
  5
13
330
12
  0
DICTIONARY
  5
14
330
A
100
AcDbDictionary
281
1
  0
DICTIONARY
  5
15
330
A
100
AcDbDictionary
281
1
  0
DICTIONARY
  5
16
330
A
100
AcDbDictionary
281
1
  0
LAYOUT
  5
1A
330
D
100
AcDbPlotSettings
  1

  2
Adobe PDF
  4
A4
  6

 40
3.175
 41
3.175
 42
3.175
 43
3.175
 44
209.91
 45
297.03
 46
0.0
 47
0.0
 48
0.0
 49
0.0
140
0.0
141
0.0
142
1.0
143
1.0
 70
1024
 72
0
 73
1
 74
5
  7

 75
16
 76
0
 77
2
 78
300
147
1.0
148
0.0
149
0.0
100
AcDbLayout
  1
Model
 70
1
 71
0
 10
-3.175
 20
-3.175
 11
293.857
 21
206.735
 12
0.0
 22
0.0
 32
0.0
 14
29.068
 24
20.356
 34
0.0
 15
261.614
 25
183.204
 35
0.0
146
0.0
 13
0.0
 23
0.0
 33
0.0
 16
1.0
 26
0.0
 36
0.0
 17
0.0
 27
1.0
 37
0.0
 76
1
330
17
  0
LAYOUT
  5
1E
330
D
100
AcDbPlotSettings
  1

  2
Adobe PDF
  4
A4
  6

 40
3.175
 41
3.175
 42
3.175
 43
3.175
 44
209.91
 45
297.03
 46
0.0
 47
0.0
 48
0.0
 49
0.0
140
0.0
141
0.0
142
1.0
143
1.0
 70
0
 72
0
 73
1
 74
5
  7

 75
16
 76
0
 77
2
 78
300
147
1.0
148
0.0
149
0.0
100
AcDbLayout
  1
Layout1
 70
1
 71
1
 10
-3.175
 20
-3.175
 11
293.857
 21
206.735
 12
0.0
 22
0.0
 32
0.0
 14
29.068
 24
20.356
 34
0.0
 15
261.614
 25
183.204
 35
0.0
146
0.0
 13
0.0
 23
0.0
 33
0.0
 16
1.0
 26
0.0
 36
0.0
 17
0.0
 27
1.0
 37
0.0
 76
1
330
1B
  0
MATERIAL
  5
1F
102
{ACAD_REACTORS
330
E
102
}
330
E
100
AcDbMaterial
  1
ByBlock
  2

 70
0
 40
1.0
 71
1
 41
1.0
 91
-1023410177
 42
1.0
 72
1
  3

 73
1
 74
1
 75
1
 44
0.5
 73
0
 45
1.0
 46
1.0
 77
1
  4

 78
1
 79
1
170
1
 48
1.0
171
1
  6

172
1
173
1
174
1
140
1.0
141
1.0
175
1
  7

176
1
177
1
178
1
143
1.0
179
1
  8

270
1
271
1
272
1
145
1.0
146
1.0
273
1
  9

274
1
275
1
276
1
 42
1.0
 72
1
  3

 73
1
 74
1
 75
1
 94
63
  0
MATERIAL
  5
20
102
{ACAD_REACTORS
330
E
102
}
330
E
100
AcDbMaterial
  1
ByLayer
  2

 70
0
 40
1.0
 71
1
 41
1.0
 91
-1023410177
 42
1.0
 72
1
  3

 73
1
 74
1
 75
1
 44
0.5
 73
0
 45
1.0
 46
1.0
 77
1
  4

 78
1
 79
1
170
1
 48
1.0
171
1
  6

172
1
173
1
174
1
140
1.0
141
1.0
175
1
  7

176
1
177
1
178
1
143
1.0
179
1
  8

270
1
271
1
272
1
145
1.0
146
1.0
273
1
  9

274
1
275
1
276
1
 42
1.0
 72
1
  3

 73
1
 74
1
 75
1
 94
63
  0
MATERIAL
  5
21
102
{ACAD_REACTORS
330
E
102
}
330
E
100
AcDbMaterial
  1
Global
  2

 70
0
 40
1.0
 71
1
 41
1.0
 91
-1023410177
 42
1.0
 72
1
  3

 73
1
 74
1
 75
1
 44
0.5
 73
0
 45
1.0
 46
1.0
 77
1
  4

 78
1
 79
1
170
1
 48
1.0
171
1
  6

172
1
173
1
174
1
140
1.0
141
1.0
175
1
  7

176
1
177
1
178
1
143
1.0
179
1
  8

270
1
271
1
272
1
145
1.0
146
1.0
273
1
  9

274
1
275
1
276
1
 42
1.0
 72
1
  3

 73
1
 74
1
 75
1
 94
63
  0
MLINESTYLE
  5
22
102
{ACAD_REACTORS
330
10
102
}
330
10
100
AcDbMlineStyle
  2
Standard
 70
0
  3

 62
256
 51
90.0
 52
90.0
 71
2
 49
0.5
 62
256
  6
BYLAYER
 49
-0.5
 62
256
  6
BYLAYER
  0
MLEADERSTYLE
  5
2C
102
{ACAD_REACTORS
330
F
102
}
330
F
100
AcDbMLeaderStyle
179
2
170
2
171
1
172
0
 90
2
 40
0.0
 41
0.0
173
1
 91
-1056964608
 92
-2
290
1
 42
2.0
291
1
 43
8.0
  3
Standard
 44
4.0
300

342
29
174
1
175
1
176
0
178
1
 93
-1056964608
 45
4.0
292
0
297
0
 46
4.0
 94
-1056964608
 47
1.0
 49
1.0
140
1.0
294
1
141
0.0
177
0
142
1.0
295
0
296
0
143
3.75
271
0
272
9
273
9
  0
ENDSEC
  0
EOF
